<?xml version="1.0" encoding="utf-8"?>
<!-- Generator: Adobe Illustrator 22.1.0, SVG Export Plug-In . SVG Version: 6.00 Build 0)  -->
<svg version="1.1" id="Layer_1" xmlns="http://www.w3.org/2000/svg" xmlns:xlink="http://www.w3.org/1999/xlink" x="0px" y="0px"
	 viewBox="0 0 24 24" style="enable-background:new 0 0 24 24;" xml:space="preserve">
<style type="text/css">
	.st0{fill:url(#SVGID_1_);}
	.st1{fill:none;}
</style>
<linearGradient id="SVGID_1_" gradientUnits="userSpaceOnUse" x1="5.2937" y1="5.2937" x2="18.7062" y2="18.7062">
	<stop  offset="0" style="stop-color:#9AC4E9;stop-opacity:0.2"/>
	<stop  offset="1" style="stop-color:#D5B4EF;stop-opacity:0.5"/>
</linearGradient>
<path class="st0" d="M6,13c-0.6,0-1,0.4-1,1s0.4,1,1,1s1-0.4,1-1S6.6,13,6,13z M6,17c-0.6,0-1,0.5-1,1s0.4,1,1,1s1-0.5,1-1
	S6.6,17,6,17z M6,9c-0.6,0-1,0.4-1,1s0.4,1,1,1s1-0.4,1-1S6.6,9,6,9z M3,9.5c-0.3,0-0.5,0.2-0.5,0.5s0.2,0.5,0.5,0.5
	s0.5-0.2,0.5-0.5S3.3,9.5,3,9.5z M6,5C5.4,5,5,5.4,5,6s0.4,1,1,1s1-0.4,1-1S6.6,5,6,5z M21,10.5c0.3,0,0.5-0.2,0.5-0.5
	S21.3,9.5,21,9.5s-0.5,0.2-0.5,0.5S20.7,10.5,21,10.5z M14,7c0.6,0,1-0.4,1-1s-0.4-1-1-1s-1,0.4-1,1S13.4,7,14,7z M14,3.5
	c0.3,0,0.5-0.2,0.5-0.5S14.3,2.5,14,2.5S13.5,2.7,13.5,3S13.7,3.5,14,3.5z M3,13.5c-0.3,0-0.5,0.2-0.5,0.5s0.2,0.5,0.5,0.5
	s0.5-0.2,0.5-0.5S3.3,13.5,3,13.5z M10,20.5c-0.3,0-0.5,0.2-0.5,0.5s0.2,0.5,0.5,0.5s0.5-0.2,0.5-0.5S10.3,20.5,10,20.5z M10,3.5
	c0.3,0,0.5-0.2,0.5-0.5S10.3,2.5,10,2.5S9.5,2.7,9.5,3S9.7,3.5,10,3.5z M10,7c0.6,0,1-0.4,1-1s-0.4-1-1-1S9,5.4,9,6S9.4,7,10,7z
	 M10,12.5c-0.8,0-1.5,0.7-1.5,1.5s0.7,1.5,1.5,1.5s1.5-0.7,1.5-1.5S10.8,12.5,10,12.5z M18,13c-0.5,0-1,0.4-1,1s0.5,1,1,1s1-0.4,1-1
	S18.5,13,18,13z M18,17c-0.5,0-1,0.5-1,1s0.5,1,1,1s1-0.5,1-1S18.5,17,18,17z M18,9c-0.5,0-1,0.4-1,1s0.5,1,1,1s1-0.4,1-1
	S18.5,9,18,9z M18,5c-0.5,0-1,0.4-1,1s0.5,1,1,1s1-0.4,1-1S18.5,5,18,5z M21,13.5c-0.3,0-0.5,0.2-0.5,0.5s0.2,0.5,0.5,0.5
	s0.5-0.2,0.5-0.5S21.3,13.5,21,13.5z M14,17c-0.6,0-1,0.5-1,1s0.4,1,1,1s1-0.5,1-1S14.6,17,14,17z M14,20.5c-0.3,0-0.5,0.2-0.5,0.5
	s0.2,0.5,0.5,0.5s0.5-0.2,0.5-0.5S14.3,20.5,14,20.5z M10,8.5c-0.8,0-1.5,0.7-1.5,1.5s0.7,1.5,1.5,1.5s1.5-0.7,1.5-1.5
	S10.8,8.5,10,8.5z M10,17c-0.6,0-1,0.5-1,1s0.4,1,1,1s1-0.5,1-1S10.6,17,10,17z M14,12.5c-0.8,0-1.5,0.7-1.5,1.5s0.7,1.5,1.5,1.5
	s1.5-0.7,1.5-1.5S14.8,12.5,14,12.5z M14,8.5c-0.8,0-1.5,0.7-1.5,1.5s0.7,1.5,1.5,1.5s1.5-0.7,1.5-1.5S14.8,8.5,14,8.5z"/>
<path class="st1" d="M0,0h24v24H0V0z"/>
</svg>
