<svg xmlns="http://www.w3.org/2000/svg" xmlns:xlink="http://www.w3.org/1999/xlink" viewBox="0 0 249.49 251.8"><defs><style>.cls-1{fill:#919495;}.cls-2{fill:url(#radial-gradient);}</style><radialGradient id="radial-gradient" cx="127.29" cy="-21.89" r="225.71" gradientUnits="userSpaceOnUse"><stop offset="0.01" stop-color="#3ec2f1"/><stop offset="0.21" stop-color="#36a4d7"/><stop offset="0.57" stop-color="#2870aa"/><stop offset="0.85" stop-color="#1f508e"/><stop offset="1" stop-color="#1c4484"/></radialGradient></defs><title>eden</title><g id="Layer_2" data-name="Layer 2"><g id="Layer_1-2" data-name="Layer 1"><path class="cls-1" d="M50.05,216.05v19.23H64.14V241H50.05v5.18H68.31v5.67H44.38V210.41H68.31v5.64Z"/><path class="cls-1" d="M85.87,251.8V210.41h9.41a20.11,20.11,0,0,1,8,1.62,20.45,20.45,0,0,1,6.6,4.45,20.61,20.61,0,0,1,4.4,22.67,20.38,20.38,0,0,1-4.4,6.58,21.05,21.05,0,0,1-6.6,4.43,20.12,20.12,0,0,1-8,1.64Zm5.72-5.74h3.69a15.16,15.16,0,0,0,5.82-1.17,14.7,14.7,0,0,0,4.76-3.21,14.64,14.64,0,0,0,4.4-10.6,14.86,14.86,0,0,0-1.16-5.82,15.31,15.31,0,0,0-8-7.94,14.3,14.3,0,0,0-5.82-1.19H91.59Z"/><path class="cls-1" d="M139.2,216.05v19.23h14.1V241H139.2v5.18h18.27v5.67H133.54V210.41h23.93v5.64Z"/><path class="cls-1" d="M205.11,251.8l-24.49-27.07V251.8H175V210.41l24.51,26.64V210.41h5.57Z"/><path class="cls-2" d="M238.43,41.81a11.07,11.07,0,0,0-10.58,7.89H201.32l-.19-.57c0-.12-.09-.24-.14-.35s-.15-.36-.23-.53-.11-.24-.17-.36-.17-.33-.26-.5l-.22-.35c-.1-.15-.19-.31-.3-.46s-.17-.23-.26-.35-.37-.48-.57-.7-.22-.25-.34-.37-.23-.22-.34-.33l-.38-.34-.36-.3c-.13-.11-.28-.21-.42-.32l-.36-.25-.54-.32-.29-.18c-.28-.15-.57-.29-.86-.41l-.29-.11c-.22-.09-.43-.17-.65-.24l-.36-.11-.63-.16-.37-.08-.68-.1-.34,0a8.43,8.43,0,0,0-1-.06h0a8.43,8.43,0,0,0-1,.06l-.34,0-.68.1-.38.08-.62.16-.36.11c-.22.07-.44.15-.65.24l-.29.11c-.29.12-.58.26-.86.41l-.3.18-.53.32-.36.25-.43.32-.36.3-.37.33c-.11.11-.23.22-.34.34s-.22.24-.33.36a8.06,8.06,0,0,0-.59.72c-.09.11-.18.22-.26.34l-.3.47-.21.34c-.09.17-.18.33-.26.5l-.18.36c-.08.17-.16.35-.23.53s-.08.23-.13.35-.14.38-.19.57a10.78,10.78,0,0,0-.31,5h0c.06.32.13.64.21.95v0c.08.31.17.61.28.91v0a11.09,11.09,0,0,0,3.12,4.57l.12.11.52.41.29.21c.16.11.32.22.49.32l.38.23.46.25c.16.08.31.16.46.22l.46.2.52.19.44.15.59.15.41.09c.24,0,.47.08.71.11l.34,0c.35,0,.71.05,1.07.05s.73,0,1.08-.05l.34,0c.24,0,.47-.06.7-.11l.42-.09.59-.15.44-.15.52-.19.46-.19.45-.23c.16-.08.32-.16.47-.25l.38-.23c.17-.1.33-.21.49-.32l.29-.21.52-.41.12-.11a11,11,0,0,0,2.76-3.69c.13-.28.25-.58.36-.87v0c.11-.3.2-.6.28-.91v0c.08-.31.15-.63.2-.95h25.93a11,11,0,0,0,4.75,7.36l-55.57,95.07a11,11,0,0,0-8.84,0l-26.81-45.86L174.15,54.7l2.92-5L193.25,22a12.44,12.44,0,0,0,1.37.09A11.06,11.06,0,1,0,184,8H72.94A11.06,11.06,0,1,0,62.38,22.31a10.57,10.57,0,0,0,1.39-.1L75.55,42.35a11,11,0,0,0,7.71,19,11.27,11.27,0,0,0,3.1-.45,11.13,11.13,0,0,0,4.35-2.47A11,11,0,0,0,83.26,39.2a11.16,11.16,0,0,0-3.44.55L68.53,20.44A11.05,11.05,0,0,0,73.29,13H183.74a11.07,11.07,0,0,0,4.76,7.29L171.28,49.7H103.66a2.5,2.5,0,0,0-2.16,3.76l5.32,9.1H21.64A11.05,11.05,0,1,0,11.05,76.78a12.46,12.46,0,0,0,1.38-.09L68.73,173a11.06,11.06,0,1,0,16.9,0l30.25-51.74-2.9-5L81.6,170a11,11,0,0,0-8.84,0L17.19,74.92a11,11,0,0,0,4.75-7.36H90.28l15,25.67h0L107.51,97l18.79,32.14a2.5,2.5,0,0,0,4.31,0l4.18-7.15-2.9-5L128.46,123l-6.79-11.61,6.83-11.69h0l2.9-5h0L148,66.32a2.5,2.5,0,0,0-2.16-3.76H118.4l2.92,5h20.16l-13,22.2-13-22.2h0l-2.92-5h0L108,54.7h60.35l-30.18,51.62-3.88-6.66-2.9,5,3,5.15h0l13.45,23h0l16,27.37a11.05,11.05,0,1,0,16.9,0l56.3-96.31a12.44,12.44,0,0,0,1.37.09,11.06,11.06,0,1,0,0-22.11ZM196.79,52.87a6,6,0,0,1-.07.85c0,.05,0,.11,0,.17a6.1,6.1,0,0,1-.53,1.63,1.17,1.17,0,0,0,0,.11,6.24,6.24,0,0,1-.45.73l-.07.09a5.47,5.47,0,0,1-.54.65l0,0a6.93,6.93,0,0,1-.64.56l-.12.09q-.34.24-.72.45l-.08,0a6.66,6.66,0,0,1-.73.31l-.13,0a5.77,5.77,0,0,1-.82.2l-.17,0a6.69,6.69,0,0,1-.9.07,6.54,6.54,0,0,1-.89-.07l-.17,0a5.45,5.45,0,0,1-.82-.2l-.13,0a5.92,5.92,0,0,1-.73-.31l-.08,0a6.67,6.67,0,0,1-.72-.45l-.12-.09a6.93,6.93,0,0,1-.64-.56l0,0a6.75,6.75,0,0,1-.55-.65l-.07-.09a6.87,6.87,0,0,1-.44-.74l0-.1a6.1,6.1,0,0,1-.53-1.63,1.11,1.11,0,0,1,0-.17,6,6,0,0,1-.07-.85,6.66,6.66,0,0,1,0-.78l0-.18c0-.23.09-.45.15-.67,0,0,0,0,0-.06a6.12,6.12,0,0,1,2.16-3.13l.06,0a4.35,4.35,0,0,1,.57-.38l0,0a6,6,0,0,1,.67-.33h0a4.51,4.51,0,0,1,.65-.22l.18,0,.53-.11.2,0a5.43,5.43,0,0,1,1.47,0l.19,0,.54.11.18,0a5,5,0,0,1,.65.22h0a7,7,0,0,1,.67.33l0,0a5.65,5.65,0,0,1,.57.38l.06,0a6.23,6.23,0,0,1,1.5,1.65h0a6,6,0,0,1,.65,1.48s0,0,0,.06c.06.22.11.44.15.67a1.1,1.1,0,0,1,0,.18,5,5,0,0,1,.06.77ZM78.21,46.92a6.05,6.05,0,0,1,4.24-2.66,5.52,5.52,0,0,1,.81-.06,6,6,0,0,1,.43,12.08c-.14,0-.28,0-.43,0a6.06,6.06,0,0,1-5.05-9.39Zm-10-34A6.08,6.08,0,0,1,66,16.1a6,6,0,0,1-3.61,1.21,5.68,5.68,0,0,1-1.6-.23,6,6,0,1,1,7.66-5.83A6,6,0,0,1,68.19,13ZM189.43,8a6.05,6.05,0,1,1,6.83,8.92,5.91,5.91,0,0,1-1.64.23A6.06,6.06,0,0,1,191,15.92a6.15,6.15,0,0,1-2.15-3,6,6,0,0,1,.55-5ZM71.57,177.86a6,6,0,1,1-.44,2.26A6.05,6.05,0,0,1,71.57,177.86ZM16.82,67.56a6.12,6.12,0,0,1-2.16,3,6,6,0,0,1-3.61,1.2,6.21,6.21,0,0,1-1.62-.22,6,6,0,1,1,7.68-5.83A5.84,5.84,0,0,1,16.82,67.56Zm92.92,0,15.87,27.15-6.83,11.69L96.07,67.56Zm62.57,105.75a6,6,0,1,1,6.05-6.05A6.06,6.06,0,0,1,172.31,173.31ZM240.06,58.7a6.23,6.23,0,0,1-1.63.22,6,6,0,0,1-3.6-1.2,6.12,6.12,0,0,1-2.16-3,5.84,5.84,0,0,1-.29-1.83,6.06,6.06,0,1,1,7.68,5.83Z"/></g></g></svg>