<?xml version="1.0" encoding="utf-8"?>
<!-- Generator: Adobe Illustrator 22.1.0, SVG Export Plug-In . SVG Version: 6.00 Build 0)  -->
<svg version="1.1" id="Layer_1" xmlns="http://www.w3.org/2000/svg" xmlns:xlink="http://www.w3.org/1999/xlink" x="0px" y="0px"
	 viewBox="0 0 249.5 251.8" style="enable-background:new 0 0 249.5 251.8;" xml:space="preserve">
<style type="text/css">
	.st0{fill:#FFFFFF;}
</style>
<title>eden</title>
<g>
	<path class="st0" d="M50,216.1v19.2h14.1v5.7H50v5.2h18.3v5.7H44.4v-41.4h23.9v5.6H50z"/>
	<path class="st0" d="M85.9,251.8v-41.4h9.4c2.7,0,5.5,0.5,8,1.6c2.5,1,4.7,2.5,6.6,4.4c6,5.9,7.7,14.9,4.4,22.7
		c-1,2.5-2.5,4.7-4.4,6.6c-1.9,1.9-4.1,3.4-6.6,4.4c-2.5,1.1-5.2,1.6-8,1.6L85.9,251.8z M91.6,246.1h3.7c2,0,4-0.4,5.8-1.2
		c1.8-0.7,3.4-1.8,4.8-3.2c2.8-2.8,4.4-6.6,4.4-10.6c0-2-0.4-4-1.2-5.8c-1.6-3.6-4.4-6.4-8-7.9c-1.8-0.8-3.8-1.2-5.8-1.2h-3.7
		L91.6,246.1z"/>
	<path class="st0" d="M139.2,216.1v19.2h14.1v5.7h-14.1v5.2h18.3v5.7h-23.9v-41.4h23.9v5.6H139.2z"/>
	<path class="st0" d="M205.1,251.8l-24.5-27.1v27.1H175v-41.4l24.5,26.6v-26.6h5.6L205.1,251.8z"/>
	<path class="st0" d="M238.4,41.8c-4.9,0-9.2,3.2-10.6,7.9h-26.5l-0.2-0.6c0-0.1-0.1-0.2-0.1-0.3s-0.1-0.4-0.2-0.5s-0.1-0.2-0.2-0.4
		s-0.2-0.3-0.3-0.5l-0.2-0.3c-0.1-0.2-0.2-0.3-0.3-0.5s-0.2-0.2-0.3-0.3s-0.4-0.5-0.6-0.7s-0.2-0.3-0.3-0.4s-0.2-0.2-0.3-0.3
		l-0.4-0.3l-0.4-0.3c-0.1-0.1-0.3-0.2-0.4-0.3l-0.4-0.3l-0.5-0.3l-0.3-0.2c-0.3-0.2-0.6-0.3-0.9-0.4l-0.3-0.1
		c-0.2-0.1-0.4-0.2-0.6-0.2l-0.4-0.1l-0.6-0.2l-0.4-0.1l-0.7-0.1h-0.3c-0.3,0-0.7-0.1-1-0.1l0,0c-0.3,0-0.7,0-1,0.1h-0.3l-0.7,0.1
		l-0.4,0.1l-0.6,0.2l-0.4,0.1c-0.2,0.1-0.4,0.2-0.6,0.2l-0.3,0.1c-0.3,0.1-0.6,0.3-0.9,0.4l-0.3,0.2l-0.5,0.3l-0.4,0.3l-0.4,0.3
		l-0.4,0.3l-0.4,0.3c-0.1,0.1-0.2,0.2-0.3,0.3s-0.2,0.2-0.3,0.4c-0.2,0.2-0.4,0.5-0.6,0.7c-0.1,0.1-0.2,0.2-0.3,0.3l-0.3,0.5
		l-0.2,0.3c-0.1,0.2-0.2,0.3-0.3,0.5l-0.2,0.4c-0.1,0.2-0.2,0.3-0.2,0.5s-0.1,0.2-0.1,0.3s-0.1,0.4-0.2,0.6c-0.5,1.6-0.6,3.3-0.3,5
		l0,0c0.1,0.3,0.1,0.6,0.2,1l0,0c0.1,0.3,0.2,0.6,0.3,0.9l0,0c0.6,1.8,1.7,3.3,3.1,4.6l0.1,0.1l0.5,0.4l0.3,0.2
		c0.2,0.1,0.3,0.2,0.5,0.3l0.4,0.2l0.5,0.3c0.2,0.1,0.3,0.2,0.5,0.2l0.5,0.2l0.5,0.2l0.4,0.2l0.6,0.2l0.4,0.1c0.2,0,0.5,0.1,0.7,0.1
		h0.3c0.4,0,0.7,0,1.1,0s0.7,0,1.1,0h0.3c0.2,0,0.5-0.1,0.7-0.1l0.4-0.1l0.6-0.2l0.4-0.2l0.5-0.2l0.5-0.2l0.4-0.2
		c0.2-0.1,0.3-0.2,0.5-0.3l0.4-0.2c0.2-0.1,0.3-0.2,0.5-0.3l0.3-0.2l0.5-0.4l0.1-0.1c1.2-1,2.1-2.3,2.8-3.7c0.1-0.3,0.3-0.6,0.4-0.9
		l0,0c0.1-0.3,0.2-0.6,0.3-0.9l0,0c0.1-0.3,0.1-0.6,0.2-1h25.9c0.5,3,2.2,5.7,4.8,7.4l-55.6,95.1c-2.8-1.2-6-1.2-8.8,0l-26.8-45.9
		l33-56.6l2.9-5L193.3,22c0.5,0.1,0.9,0.1,1.4,0.1c6.1,0,11.1-4.9,11.1-11S200.8,0,194.7,0c-4.9,0-9.3,3.3-10.7,8H72.9
		c-1.8-5.8-8-9.1-13.8-7.3s-9.1,8-7.3,13.8c1.4,4.6,5.7,7.8,10.6,7.8c0.5,0,0.9,0,1.4-0.1l11.8,20.1c-4.4,4.2-4.6,11.1-0.5,15.5
		c2.1,2.2,5.1,3.5,8.2,3.5c1,0,2.1-0.2,3.1-0.5c1.6-0.5,3.1-1.3,4.3-2.5c4.5-4,5-11,0.9-15.5c-2.1-2.4-5.2-3.7-8.4-3.7
		c-1.2,0-2.3,0.2-3.4,0.5L68.5,20.4c2.6-1.7,4.3-4.4,4.8-7.4h110.5c0.5,3,2.2,5.6,4.8,7.3l-17.2,29.4h-67.6c-1.4,0-2.5,1.1-2.5,2.5
		c0,0.4,0.1,0.9,0.3,1.3l5.3,9.1H21.6c-1.8-5.8-7.9-9.2-13.8-7.4s-9.2,7.9-7.4,13.8c1.4,4.7,5.7,7.9,10.6,7.9c0.5,0,0.9,0,1.4-0.1
		L68.7,173c-3.9,4.7-3.4,11.6,1.3,15.6c4.7,3.9,11.6,3.4,15.6-1.3c3.5-4.1,3.5-10.2,0-14.3l30.3-51.7l-2.9-5L81.6,170
		c-2.8-1.2-6-1.2-8.8,0L17.2,74.9c2.5-1.7,4.3-4.4,4.8-7.4h68.3l15,25.7l0,0l2.2,3.8l18.8,32.1c0.7,1.2,2.2,1.6,3.4,0.9
		c0.4-0.2,0.7-0.5,0.9-0.9l4.2-7.2l-2.9-5l-3.4,6l-6.8-11.6l6.8-11.7l0,0l2.9-5l0,0L148,66.3c0.7-1.2,0.3-2.7-0.9-3.4
		c-0.4-0.2-0.8-0.3-1.3-0.3h-27.4l2.9,5h20.2l-13,22.2l-13-22.2l0,0l-2.9-5l0,0l-4.6-7.9h60.4l-30.2,51.6l-3.9-6.7l-2.9,5l3,5.2l0,0
		l13.4,23l0,0l16,27.4c-3.9,4.7-3.3,11.6,1.3,15.6c4.7,3.9,11.6,3.3,15.6-1.3c3.5-4.1,3.5-10.1,0-14.2L237,63.9
		c0.5,0.1,0.9,0.1,1.4,0.1c6.1,0.2,11.2-4.6,11.4-10.7s-4.6-11.2-10.7-11.4C238.9,41.8,238.6,41.8,238.4,41.8L238.4,41.8z
		 M196.8,52.9c0,0.3,0,0.6-0.1,0.8c0,0,0,0.1,0,0.2c-0.1,0.6-0.3,1.1-0.5,1.6c0,0,0,0.1,0,0.1c-0.1,0.3-0.3,0.5-0.4,0.7l-0.1,0.1
		c-0.2,0.2-0.3,0.4-0.5,0.7l0,0c-0.2,0.2-0.4,0.4-0.6,0.6l-0.1,0.1c-0.2,0.2-0.5,0.3-0.7,0.5h-0.1c-0.2,0.1-0.5,0.2-0.7,0.3h-0.1
		c-0.3,0.1-0.5,0.2-0.8,0.2h-0.2c-0.3,0-0.6,0.1-0.9,0.1c-0.3,0-0.6,0-0.9-0.1h-0.2c-0.3,0-0.6-0.1-0.8-0.2h-0.1
		c-0.2-0.1-0.5-0.2-0.7-0.3H188c-0.2-0.1-0.5-0.3-0.7-0.5l-0.1-0.1c-0.2-0.2-0.4-0.4-0.6-0.6l0,0c-0.2-0.2-0.4-0.4-0.6-0.7l-0.1-0.1
		c-0.2-0.2-0.3-0.5-0.4-0.7v-0.1c-0.3-0.5-0.4-1.1-0.5-1.6c0-0.1,0-0.1,0-0.2c0-0.3-0.1-0.6-0.1-0.8c0-0.3,0-0.5,0-0.8v-0.2
		c0-0.2,0.1-0.5,0.1-0.7c0,0,0,0,0-0.1c0.4-1.2,1.1-2.3,2.2-3.1h0.1c0.2-0.1,0.4-0.3,0.6-0.4l0,0c0.2-0.1,0.4-0.2,0.7-0.3l0,0
		c0.2-0.1,0.4-0.2,0.6-0.2h0.2l0.5-0.1h0.2c0.5-0.1,1-0.1,1.5,0h0.2l0.5,0.1h0.2c0.2,0.1,0.4,0.1,0.6,0.2l0,0
		c0.2,0.1,0.5,0.2,0.7,0.3l0,0c0.2,0.1,0.4,0.2,0.6,0.4h0.1c0.6,0.5,1.1,1,1.5,1.7l0,0c0.3,0.5,0.5,1,0.6,1.5c0,0,0,0,0,0.1
		c0.1,0.2,0.1,0.4,0.1,0.7c0,0.1,0,0.1,0,0.2C196.7,52.3,196.7,52.6,196.8,52.9L196.8,52.9z M78.2,46.9c1-1.5,2.5-2.4,4.2-2.7
		c0.3,0,0.5-0.1,0.8-0.1c3.3-0.1,6.1,2.5,6.3,5.8c0.1,3.3-2.5,6.1-5.8,6.3l0,0c-0.1,0-0.3,0-0.4,0c-3.3,0-6.1-2.7-6-6.1
		C77.2,49,77.6,47.9,78.2,46.9L78.2,46.9z M68.2,12.9c-0.4,1.3-1.1,2.4-2.2,3.2c-1,0.8-2.3,1.2-3.6,1.2c-0.5,0-1.1-0.1-1.6-0.2
		c-3.2-0.9-5-4.2-4.1-7.4s4.2-5,7.4-4.1c2.5,0.7,4.3,3.1,4.3,5.7C68.5,11.8,68.4,12.4,68.2,12.9L68.2,12.9z M189.4,8
		c1.7-2.9,5.4-3.8,8.3-2.1s3.8,5.4,2.1,8.3c-0.8,1.3-2.1,2.3-3.6,2.7c-0.5,0.2-1.1,0.2-1.6,0.2c-1.3,0-2.6-0.4-3.6-1.2
		c-1-0.8-1.8-1.8-2.1-3C188.3,11.3,188.5,9.4,189.4,8L189.4,8z M71.6,177.9c1.2-3.1,4.7-4.6,7.8-3.3c3.1,1.2,4.6,4.7,3.3,7.8
		c-1.2,3.1-4.7,4.6-7.8,3.3c-2.3-0.9-3.7-3.1-3.7-5.6C71.1,179.3,71.3,178.6,71.6,177.9z M16.8,67.6c-0.4,1.2-1.1,2.2-2.2,3
		c-1,0.8-2.3,1.2-3.6,1.2c-0.5,0-1.1-0.1-1.6-0.2c-3.2-0.9-5-4.3-4.1-7.4c0.9-3.2,4.3-5,7.4-4.1c2.5,0.7,4.3,3,4.3,5.7
		C17.1,66.3,17,67,16.8,67.6z M109.7,67.6l15.9,27.2l-6.8,11.7L96.1,67.6H109.7z M172.3,173.3c-3.3,0-6-2.7-5.9-6.1
		c0-3.3,2.7-6,6.1-5.9c3.3,0,5.9,2.7,5.9,5.9C178.4,170.6,175.6,173.3,172.3,173.3z M240.1,58.7c-0.5,0.1-1.1,0.2-1.6,0.2
		c-1.3,0-2.6-0.4-3.6-1.2c-1-0.8-1.8-1.8-2.2-3c-0.2-0.6-0.3-1.2-0.3-1.8c0-3.3,2.7-6.1,6.1-6.1c3.3,0,6.1,2.7,6.1,6.1
		C244.5,55.6,242.7,58,240.1,58.7L240.1,58.7z"/>
</g>
</svg>
